<svg id="visual" viewBox="0 0 900 450" width="900" height="450" xmlns="http://www.w3.org/2000/svg" xmlns:xlink="http://www.w3.org/1999/xlink" version="1.1"><rect x="0" y="0" width="900" height="450" fill="#e9e9e9"></rect><path d="M0 301L100 301L100 299L200 299L200 258L300 258L300 313L400 313L400 269L500 269L500 274L600 274L600 269L700 269L700 330L800 330L800 322L900 322L900 385L900 0L900 0L800 0L800 0L700 0L700 0L600 0L600 0L500 0L500 0L400 0L400 0L300 0L300 0L200 0L200 0L100 0L100 0L0 0Z" fill="#4d9e41"></path><path d="M0 254L100 254L100 272L200 272L200 218L300 218L300 224L400 224L400 242L500 242L500 241L600 241L600 255L700 255L700 252L800 252L800 314L900 314L900 209L900 0L900 0L800 0L800 0L700 0L700 0L600 0L600 0L500 0L500 0L400 0L400 0L300 0L300 0L200 0L200 0L100 0L100 0L0 0Z" fill="#437b39"></path><path d="M0 198L100 198L100 240L200 240L200 246L300 246L300 153L400 153L400 231L500 231L500 231L600 231L600 164L700 164L700 213L800 213L800 202L900 202L900 173L900 0L900 0L800 0L800 0L700 0L700 0L600 0L600 0L500 0L500 0L400 0L400 0L300 0L300 0L200 0L200 0L100 0L100 0L0 0Z" fill="#385a31"></path><path d="M0 129L100 129L100 177L200 177L200 137L300 137L300 155L400 155L400 108L500 108L500 146L600 146L600 106L700 106L700 162L800 162L800 162L900 162L900 169L900 0L900 0L800 0L800 0L700 0L700 0L600 0L600 0L500 0L500 0L400 0L400 0L300 0L300 0L200 0L200 0L100 0L100 0L0 0Z" fill="#2c3b28"></path><path d="M0 48L100 48L100 99L200 99L200 48L300 48L300 72L400 72L400 106L500 106L500 110L600 110L600 38L700 38L700 111L800 111L800 46L900 46L900 71L900 0L900 0L800 0L800 0L700 0L700 0L600 0L600 0L500 0L500 0L400 0L400 0L300 0L300 0L200 0L200 0L100 0L100 0L0 0Z" fill="#1e1e1e"></path></svg>